<?xml version="1.0" standalone="no"?>
<!DOCTYPE svg PUBLIC "-//W3C//DTD SVG 20010904//EN"
 "http://www.w3.org/TR/2001/REC-SVG-20010904/DTD/svg10.dtd">
<svg version="1.0" xmlns="http://www.w3.org/2000/svg"
 width="2560.000000pt" height="2560.000000pt" viewBox="0 0 2560.000000 2560.000000"
 preserveAspectRatio="xMidYMid meet">

<g transform="translate(0.000000,2560.000000) scale(0.100000,-0.100000)"
fill="#000000" stroke="none">
<path d="M11380 21143 c-260 -16 -1309 -138 -1325 -155 -2 -2 2 -53 8 -113
l13 -110 39 3 c22 2 107 14 189 27 82 14 151 23 153 22 1 -2 5 -44 8 -93 9
-152 22 -283 165 -1569 76 -687 141 -1298 145 -1356 6 -84 4 -118 -9 -162 -19
-66 -67 -132 -121 -168 -44 -29 -126 -59 -161 -59 -13 0 -25 -4 -29 -10 -6
-10 10 -158 18 -167 5 -4 1198 125 1203 130 2 2 -24 229 -26 233 0 0 -84 -14
-187 -32 -104 -17 -189 -31 -190 -30 -1 0 -8 93 -17 206 -9 113 -43 441 -75
730 -43 386 -56 527 -47 532 6 4 34 8 61 8 28 0 100 7 160 15 61 8 117 15 126
15 9 0 48 -29 87 -65 69 -64 143 -153 372 -445 440 -561 589 -739 721 -864
115 -109 197 -166 238 -166 28 0 514 52 609 65 l44 6 -7 62 c-12 117 -9 112
-64 109 -86 -6 -180 14 -270 59 -123 61 -209 153 -606 649 -348 435 -486 590
-581 656 -61 42 -62 41 36 75 155 52 350 160 468 258 148 123 265 330 314 556
16 78 16 333 -1 410 -58 269 -164 433 -361 560 -201 130 -461 187 -845 183
-110 -1 -225 -3 -255 -5z m322 -218 c188 -32 315 -92 415 -193 95 -97 145
-189 188 -346 41 -151 50 -378 20 -496 -40 -155 -90 -246 -190 -346 -143 -143
-298 -216 -600 -284 -64 -15 -173 -29 -275 -35 -52 -4 -110 -8 -127 -9 -29 -3
-33 0 -38 28 -23 136 -137 1245 -138 1342 -2 115 -1 123 28 179 49 94 140 144
300 164 115 14 325 12 417 -4z"/>
<path d="M16923 20439 c-32 -34 -62 -67 -68 -73 -5 -6 -95 -103 -200 -216
-104 -113 -194 -210 -200 -216 -5 -6 -62 -66 -125 -134 -63 -68 -119 -128
-125 -134 -22 -25 -264 -286 -325 -351 -36 -38 -97 -104 -136 -145 -38 -41
-71 -77 -74 -80 -5 -5 -248 -267 -265 -286 -5 -6 -62 -67 -126 -135 -179 -192
-503 -541 -630 -679 -185 -200 -290 -279 -399 -300 -49 -9 -99 -5 -190 16 -24
5 -28 0 -57 -72 -18 -43 -31 -79 -30 -80 7 -7 912 -384 922 -384 14 0 98 201
88 210 -5 3 -53 23 -108 42 -55 20 -140 51 -188 69 l-88 32 28 31 c15 17 56
60 89 96 34 36 146 164 250 285 259 304 287 335 303 335 13 0 153 -53 591
-225 107 -42 285 -112 395 -155 110 -43 227 -90 260 -103 l60 -25 -3 -114
c-15 -564 -39 -703 -134 -783 -67 -57 -141 -69 -249 -41 -31 8 -61 16 -68 18
-7 2 -26 -31 -45 -77 -19 -44 -33 -81 -33 -81 5 -4 1114 -468 1128 -471 12 -3
26 20 57 96 23 56 42 105 42 109 0 4 -77 34 -170 67 -94 33 -170 63 -170 68 0
4 6 20 14 35 20 40 43 142 61 272 16 117 29 432 39 955 4 160 8 360 11 445 3
85 7 265 10 400 6 257 12 520 20 830 3 102 7 295 10 430 3 135 8 310 11 390
l5 146 -53 22 c-29 12 -59 22 -65 22 -6 0 -37 -28 -70 -61z m-267 -821 c-4
-95 -9 -195 -11 -223 -2 -27 -7 -111 -10 -185 -3 -74 -8 -180 -10 -235 -5
-100 -20 -461 -30 -755 -6 -156 -12 -230 -19 -237 -6 -6 -1136 471 -1136 480
0 5 53 68 118 140 172 193 625 692 696 767 297 316 355 378 372 398 10 12 23
22 27 22 6 0 7 -72 3 -172z"/>
<path d="M7262 19558 c-235 -24 -537 -150 -817 -342 -334 -229 -1020 -720
-1031 -737 -6 -10 115 -189 127 -189 4 0 59 40 121 88 62 48 130 100 150 116
l36 27 28 -48 c57 -99 225 -343 893 -1298 932 -1334 876 -1246 876 -1375 0
-96 -26 -151 -110 -229 l-61 -56 50 -72 49 -72 26 18 c14 10 305 213 646 451
719 502 757 530 889 664 150 151 257 324 315 506 95 297 47 595 -138 862 -57
83 -173 203 -241 249 -73 49 -158 89 -244 116 -117 36 -323 43 -456 15 -175
-36 -352 -113 -518 -225 -41 -27 -76 -46 -79 -43 -3 3 22 36 56 73 202 223
302 459 302 713 -1 193 -49 334 -169 490 -173 224 -413 327 -700 298z m-46
-332 c265 -70 537 -438 557 -752 16 -249 -76 -436 -313 -635 -61 -52 -355
-268 -374 -275 -6 -2 -30 21 -52 53 -22 32 -164 236 -315 453 -152 217 -291
422 -311 456 -122 209 -103 334 73 475 225 181 539 277 735 225z m1174 -1296
c209 -33 440 -234 585 -511 54 -103 75 -181 82 -304 5 -93 2 -123 -16 -195
-53 -210 -176 -381 -391 -545 -93 -70 -349 -247 -462 -318 l-56 -36 -73 117
c-40 64 -247 367 -460 672 -214 305 -389 559 -391 565 -6 21 449 355 582 427
206 112 417 156 600 128z"/>
<path d="M20310 18209 c-47 -39 -86 -74 -88 -78 -1 -4 54 -69 123 -146 69 -77
125 -142 125 -145 0 -3 -26 -23 -58 -45 -92 -63 -197 -148 -1217 -985 -1217
-998 -1137 -936 -1240 -965 -107 -31 -216 4 -309 100 l-42 43 -55 -45 c-30
-25 -60 -50 -67 -57 -10 -10 60 -101 368 -477 209 -255 384 -465 389 -467 4
-1 47 29 95 68 l86 72 -32 37 c-18 21 -78 87 -133 146 -80 87 -96 109 -84 116
51 28 317 238 689 543 234 192 431 354 439 360 10 8 18 4 32 -14 11 -14 63
-78 116 -143 92 -112 97 -120 94 -160 -6 -96 -75 -319 -310 -1002 -28 -82 -76
-230 -106 -328 -81 -264 -101 -354 -114 -521 l-9 -110 200 -245 c111 -135 209
-255 219 -265 19 -20 22 -18 143 85 5 5 -2 22 -16 41 -79 103 -113 222 -105
363 7 128 20 174 221 786 185 563 215 673 223 806 l6 92 84 -65 c177 -135 383
-235 553 -269 156 -32 360 -11 535 54 233 87 478 308 568 512 49 113 61 176
61 324 0 113 -4 157 -22 226 -77 296 -243 575 -621 1044 -103 128 -559 674
-623 747 l-33 37 -85 -70z m526 -854 c94 -39 219 -174 326 -352 206 -342 208
-615 9 -881 -82 -108 -218 -227 -332 -290 -194 -107 -379 -134 -565 -82 -190
53 -347 160 -543 366 -103 110 -254 300 -249 314 3 8 718 598 928 765 137 109
186 142 237 161 51 18 145 18 189 -1z"/>
<path d="M3793 16548 c-455 -722 -613 -982 -601 -993 19 -17 180 -117 183
-113 3 4 48 82 129 226 32 56 62 102 66 102 5 0 30 -16 55 -36 78 -59 234
-158 1345 -854 586 -367 1101 -693 1146 -723 103 -71 146 -119 174 -193 33
-88 23 -156 -46 -310 -3 -6 27 -30 66 -54 61 -37 73 -41 84 -29 24 25 638
1011 633 1015 -3 3 -47 32 -98 64 -68 43 -96 56 -102 47 -4 -7 -46 -82 -93
-167 -47 -85 -87 -157 -89 -159 -2 -2 -21 10 -42 26 -96 74 -270 185 -1286
821 -1141 715 -1281 805 -1332 856 -17 18 -44 58 -60 89 -25 51 -27 65 -23
130 4 52 14 91 36 140 l31 68 -69 44 c-38 25 -71 45 -74 45 -3 0 -18 -19 -33
-42z"/>
<path d="M23068 14118 c-62 -13 -98 -25 -98 -33 0 -13 56 -266 66 -297 4 -13
-8 -24 -48 -44 -126 -64 -297 -197 -487 -378 -1314 -1256 -1270 -1214 -1291
-1220 -34 -11 -791 -156 -863 -165 -121 -17 -194 -13 -267 12 -54 19 -71 31
-100 70 -20 26 -49 81 -65 122 -16 42 -33 74 -39 72 -6 -3 -44 -10 -83 -17
-40 -7 -73 -18 -73 -24 0 -13 242 -1230 246 -1234 2 -4 215 38 225 44 3 2 -18
97 -47 211 -30 114 -54 211 -54 215 0 4 21 10 48 13 137 20 358 59 522 95 171
36 650 129 765 147 53 9 17 18 585 -150 994 -295 1061 -317 1244 -401 233
-108 381 -258 442 -444 l17 -54 36 7 c111 20 131 27 131 44 0 25 -206 1051
-213 1057 -3 3 -55 -5 -116 -17 -91 -18 -111 -25 -107 -38 30 -115 88 -382 84
-386 -3 -3 -27 6 -55 19 -99 50 -355 134 -849 280 -120 35 -318 94 -439 129
-121 36 -287 84 -370 107 -82 24 -153 46 -157 49 -13 11 329 358 688 697 186
176 357 336 379 356 94 83 223 148 294 148 117 0 208 -103 257 -288 9 -37 20
-70 24 -75 10 -11 172 24 167 37 -2 6 -64 314 -138 684 -107 539 -137 672
-149 671 -8 -1 -59 -10 -112 -21z"/>
<path d="M4850 13058 c0 -2 -7 -41 -15 -88 -8 -47 -15 -86 -15 -86 0 -1 30 -7
68 -14 37 -6 103 -22 147 -35 337 -98 507 -251 561 -505 22 -103 14 -230 -36
-547 -22 -142 -55 -363 -75 -492 -19 -129 -36 -235 -38 -237 -2 -2 -64 10
-138 27 -74 16 -703 124 -1399 240 -1651 273 -1572 258 -1658 327 -80 64 -112
140 -112 265 0 86 10 77 -104 97 -33 5 -61 9 -62 7 -9 -8 -197 -1187 -191
-1193 10 -11 211 -43 218 -36 4 4 12 57 18 117 7 61 17 144 23 186 l10 76 36
-9 c129 -32 415 -82 1542 -268 696 -116 1301 -217 1345 -226 142 -27 213 -54
267 -103 73 -65 90 -106 97 -231 l6 -104 79 -14 c43 -7 80 -11 83 -9 2 3 100
587 218 1298 118 712 217 1306 220 1320 l6 27 -268 52 c-147 28 -391 76 -542
106 -266 52 -291 57 -291 52z"/>
</g>
</svg>
